<svg id="photo-upload" width="40" height="40" viewBox="0 0 40 40" fill="none" xmlns="http://www.w3.org/2000/svg">
<path d="M11.6668 18.3334C13.5078 18.3334 15.0002 16.8411 15.0002 15.0001C15.0002 13.1591 13.5078 11.6667 11.6668 11.6667C9.82588 11.6667 8.3335 13.1591 8.3335 15.0001C8.3335 16.8411 9.82588 18.3334 11.6668 18.3334Z" stroke="currentColor" stroke-width="2.75" stroke-linecap="round" stroke-linejoin="round"/>
<path d="M9.26758 34.9999C18.5508 18.4999 26.2675 15.5998 35.0008 26.3164" stroke="currentColor" stroke-width="2.75" stroke-linecap="round" stroke-linejoin="round"/>
<path d="M20.4665 5H8.33317C6.56505 5 4.86937 5.70227 3.61912 6.95252C2.36887 8.20275 1.6665 9.89855 1.6665 11.6667V28.3333C1.6665 30.1015 2.36887 31.797 3.61912 33.0473C4.86937 34.2975 6.56505 35 8.33317 35H28.3332C30.1013 35 31.797 34.2975 33.0472 33.0473C34.2975 31.797 34.9998 30.1015 34.9998 28.3333V20" stroke="currentColor" stroke-width="2.75" stroke-linecap="round" stroke-linejoin="round"/>
<path d="M31.25 14.7166V1.3833" stroke="currentColor" stroke-width="2.75" stroke-linecap="round" stroke-linejoin="round"/>
<path d="M25.918 6.71664L31.2513 1.3833L36.5846 6.71664" stroke="currentColor" stroke-width="2.75" stroke-linecap="round" stroke-linejoin="round"/>
</svg>
