<svg width="20" height="20" viewBox="0 0 20 20" fill="none" xmlns="http://www.w3.org/2000/svg">
<path d="M17.4944 11.0938C17.0967 11.1957 16.6797 11.2499 16.2502 11.2499C13.4887 11.2499 11.2502 9.01132 11.2502 6.2499C11.2502 5.82033 11.3043 5.40342 11.4062 5.00562C8.3055 5.14194 5.8335 7.6989 5.8335 10.8332C5.8335 14.0549 8.44516 16.6666 11.6668 16.6666C14.8012 16.6666 17.3581 14.1946 17.4944 11.0938Z" fill="#FDE047"/>
<path fill-rule="evenodd" clip-rule="evenodd" d="M3.75016 6.875C3.98028 6.875 4.16683 7.06155 4.16683 7.29167V8.54167C4.16683 8.77175 3.98028 8.95833 3.75016 8.95833C3.52005 8.95833 3.3335 8.77175 3.3335 8.54167V7.29167C3.3335 7.06155 3.52005 6.875 3.75016 6.875Z" fill="#FDE047"/>
<path fill-rule="evenodd" clip-rule="evenodd" d="M2.7085 7.91667C2.7085 7.68655 2.89505 7.5 3.12516 7.5H4.37516C4.60528 7.5 4.79183 7.68655 4.79183 7.91667C4.79183 8.14678 4.60528 8.33333 4.37516 8.33333H3.12516C2.89505 8.33333 2.7085 8.14678 2.7085 7.91667Z" fill="#FDE047"/>
<path fill-rule="evenodd" clip-rule="evenodd" d="M6.25016 2.5C6.48028 2.5 6.66683 2.68655 6.66683 2.91667V4.58333C6.66683 4.81345 6.48028 5 6.25016 5C6.02005 5 5.8335 4.81345 5.8335 4.58333V2.91667C5.8335 2.68655 6.02005 2.5 6.25016 2.5Z" fill="#FDE047"/>
<path fill-rule="evenodd" clip-rule="evenodd" d="M4.97607 3.80461C4.97607 3.57449 5.16262 3.38794 5.39274 3.38794H7.05941C7.28952 3.38794 7.47607 3.57449 7.47607 3.80461C7.47607 4.03472 7.28952 4.22127 7.05941 4.22127H5.39274C5.16262 4.22127 4.97607 4.03472 4.97607 3.80461Z" fill="#FDE047"/>
</svg>
